<mxfile host="app.diagrams.net" modified="2022-12-29T15:29:46.526Z" agent="5.0 (Windows NT 10.0; Win64; x64) AppleWebKit/537.36 (KHTML, like Gecko) Chrome/108.0.0.0 Safari/537.36" etag="iEsVz2siYNHHSaHJ-ivU" version="20.6.2" type="github">
  <diagram id="C5RBs43oDa-KdzZeNtuy" name="Page-1">
    <mxGraphModel dx="1038" dy="571" grid="1" gridSize="10" guides="1" tooltips="1" connect="1" arrows="1" fold="1" page="1" pageScale="1" pageWidth="827" pageHeight="1169" math="0" shadow="0">
      <root>
        <mxCell id="WIyWlLk6GJQsqaUBKTNV-0" />
        <mxCell id="WIyWlLk6GJQsqaUBKTNV-1" parent="WIyWlLk6GJQsqaUBKTNV-0" />
        <mxCell id="_w6nzbv7fu4ZhgSJcgNX-3" value="" style="edgeStyle=orthogonalEdgeStyle;rounded=0;orthogonalLoop=1;jettySize=auto;html=1;" edge="1" parent="WIyWlLk6GJQsqaUBKTNV-1" source="_w6nzbv7fu4ZhgSJcgNX-0" target="_w6nzbv7fu4ZhgSJcgNX-2">
          <mxGeometry relative="1" as="geometry" />
        </mxCell>
        <mxCell id="_w6nzbv7fu4ZhgSJcgNX-7" value="" style="edgeStyle=orthogonalEdgeStyle;rounded=0;orthogonalLoop=1;jettySize=auto;html=1;entryX=0.5;entryY=0;entryDx=0;entryDy=0;" edge="1" parent="WIyWlLk6GJQsqaUBKTNV-1" source="_w6nzbv7fu4ZhgSJcgNX-0" target="_w6nzbv7fu4ZhgSJcgNX-6">
          <mxGeometry relative="1" as="geometry" />
        </mxCell>
        <mxCell id="_w6nzbv7fu4ZhgSJcgNX-0" value="Utilizator" style="shape=umlActor;verticalLabelPosition=bottom;verticalAlign=top;html=1;outlineConnect=0;" vertex="1" parent="WIyWlLk6GJQsqaUBKTNV-1">
          <mxGeometry x="10" y="180" width="50" height="60" as="geometry" />
        </mxCell>
        <mxCell id="_w6nzbv7fu4ZhgSJcgNX-12" value="" style="edgeStyle=orthogonalEdgeStyle;rounded=0;orthogonalLoop=1;jettySize=auto;html=1;" edge="1" parent="WIyWlLk6GJQsqaUBKTNV-1" source="_w6nzbv7fu4ZhgSJcgNX-2" target="_w6nzbv7fu4ZhgSJcgNX-11">
          <mxGeometry relative="1" as="geometry" />
        </mxCell>
        <mxCell id="_w6nzbv7fu4ZhgSJcgNX-2" value="Log In" style="rounded=0;whiteSpace=wrap;html=1;" vertex="1" parent="WIyWlLk6GJQsqaUBKTNV-1">
          <mxGeometry x="130" y="180" width="120" height="60" as="geometry" />
        </mxCell>
        <mxCell id="_w6nzbv7fu4ZhgSJcgNX-9" value="" style="edgeStyle=orthogonalEdgeStyle;rounded=0;orthogonalLoop=1;jettySize=auto;html=1;" edge="1" parent="WIyWlLk6GJQsqaUBKTNV-1" source="_w6nzbv7fu4ZhgSJcgNX-6">
          <mxGeometry relative="1" as="geometry">
            <mxPoint x="105" y="490" as="targetPoint" />
          </mxGeometry>
        </mxCell>
        <mxCell id="_w6nzbv7fu4ZhgSJcgNX-16" style="edgeStyle=orthogonalEdgeStyle;rounded=0;orthogonalLoop=1;jettySize=auto;html=1;" edge="1" parent="WIyWlLk6GJQsqaUBKTNV-1" source="_w6nzbv7fu4ZhgSJcgNX-6" target="_w6nzbv7fu4ZhgSJcgNX-2">
          <mxGeometry relative="1" as="geometry">
            <mxPoint x="190" y="280" as="targetPoint" />
            <Array as="points">
              <mxPoint x="190" y="400" />
            </Array>
          </mxGeometry>
        </mxCell>
        <mxCell id="_w6nzbv7fu4ZhgSJcgNX-6" value="Sign Up" style="rounded=0;whiteSpace=wrap;html=1;" vertex="1" parent="WIyWlLk6GJQsqaUBKTNV-1">
          <mxGeometry x="45" y="370" width="120" height="60" as="geometry" />
        </mxCell>
        <mxCell id="_w6nzbv7fu4ZhgSJcgNX-18" value="" style="edgeStyle=orthogonalEdgeStyle;rounded=0;orthogonalLoop=1;jettySize=auto;html=1;" edge="1" parent="WIyWlLk6GJQsqaUBKTNV-1" source="_w6nzbv7fu4ZhgSJcgNX-11" target="_w6nzbv7fu4ZhgSJcgNX-17">
          <mxGeometry relative="1" as="geometry">
            <Array as="points">
              <mxPoint x="354" y="140" />
            </Array>
          </mxGeometry>
        </mxCell>
        <mxCell id="_w6nzbv7fu4ZhgSJcgNX-24" value="" style="edgeStyle=orthogonalEdgeStyle;rounded=0;orthogonalLoop=1;jettySize=auto;html=1;" edge="1" parent="WIyWlLk6GJQsqaUBKTNV-1" source="_w6nzbv7fu4ZhgSJcgNX-11" target="_w6nzbv7fu4ZhgSJcgNX-23">
          <mxGeometry relative="1" as="geometry" />
        </mxCell>
        <mxCell id="_w6nzbv7fu4ZhgSJcgNX-45" value="" style="edgeStyle=orthogonalEdgeStyle;rounded=0;orthogonalLoop=1;jettySize=auto;html=1;" edge="1" parent="WIyWlLk6GJQsqaUBKTNV-1" source="_w6nzbv7fu4ZhgSJcgNX-11" target="_w6nzbv7fu4ZhgSJcgNX-44">
          <mxGeometry relative="1" as="geometry">
            <Array as="points">
              <mxPoint x="465" y="240" />
            </Array>
          </mxGeometry>
        </mxCell>
        <mxCell id="_w6nzbv7fu4ZhgSJcgNX-52" style="edgeStyle=orthogonalEdgeStyle;rounded=0;orthogonalLoop=1;jettySize=auto;html=1;" edge="1" parent="WIyWlLk6GJQsqaUBKTNV-1" source="_w6nzbv7fu4ZhgSJcgNX-11">
          <mxGeometry relative="1" as="geometry">
            <mxPoint x="340" y="440" as="targetPoint" />
          </mxGeometry>
        </mxCell>
        <mxCell id="_w6nzbv7fu4ZhgSJcgNX-11" value="Interfață aplicație în fcț de sportul ales" style="whiteSpace=wrap;html=1;rounded=0;" vertex="1" parent="WIyWlLk6GJQsqaUBKTNV-1">
          <mxGeometry x="280" y="180" width="120" height="60" as="geometry" />
        </mxCell>
        <mxCell id="_w6nzbv7fu4ZhgSJcgNX-20" value="" style="edgeStyle=orthogonalEdgeStyle;rounded=0;orthogonalLoop=1;jettySize=auto;html=1;" edge="1" parent="WIyWlLk6GJQsqaUBKTNV-1" source="_w6nzbv7fu4ZhgSJcgNX-17" target="_w6nzbv7fu4ZhgSJcgNX-19">
          <mxGeometry relative="1" as="geometry" />
        </mxCell>
        <mxCell id="_w6nzbv7fu4ZhgSJcgNX-22" style="edgeStyle=orthogonalEdgeStyle;rounded=0;orthogonalLoop=1;jettySize=auto;html=1;" edge="1" parent="WIyWlLk6GJQsqaUBKTNV-1" source="_w6nzbv7fu4ZhgSJcgNX-17" target="_w6nzbv7fu4ZhgSJcgNX-21">
          <mxGeometry relative="1" as="geometry" />
        </mxCell>
        <mxCell id="_w6nzbv7fu4ZhgSJcgNX-17" value="Nuriție" style="ellipse;whiteSpace=wrap;html=1;rounded=0;" vertex="1" parent="WIyWlLk6GJQsqaUBKTNV-1">
          <mxGeometry x="460" y="70" width="120" height="60" as="geometry" />
        </mxCell>
        <mxCell id="_w6nzbv7fu4ZhgSJcgNX-19" value="Nutriție adecvată în fcț de sportul practicat" style="ellipse;whiteSpace=wrap;html=1;rounded=0;" vertex="1" parent="WIyWlLk6GJQsqaUBKTNV-1">
          <mxGeometry x="635" y="30" width="130" height="60" as="geometry" />
        </mxCell>
        <mxCell id="_w6nzbv7fu4ZhgSJcgNX-21" value="Suplimentare nuritivă adecvată" style="ellipse;whiteSpace=wrap;html=1;rounded=0;" vertex="1" parent="WIyWlLk6GJQsqaUBKTNV-1">
          <mxGeometry x="635" y="100" width="140" height="60" as="geometry" />
        </mxCell>
        <mxCell id="_w6nzbv7fu4ZhgSJcgNX-26" style="edgeStyle=orthogonalEdgeStyle;rounded=0;orthogonalLoop=1;jettySize=auto;html=1;" edge="1" parent="WIyWlLk6GJQsqaUBKTNV-1" source="_w6nzbv7fu4ZhgSJcgNX-23" target="_w6nzbv7fu4ZhgSJcgNX-25">
          <mxGeometry relative="1" as="geometry">
            <Array as="points">
              <mxPoint x="600" y="210" />
              <mxPoint x="600" y="200" />
            </Array>
          </mxGeometry>
        </mxCell>
        <mxCell id="_w6nzbv7fu4ZhgSJcgNX-30" style="edgeStyle=orthogonalEdgeStyle;rounded=0;orthogonalLoop=1;jettySize=auto;html=1;" edge="1" parent="WIyWlLk6GJQsqaUBKTNV-1" source="_w6nzbv7fu4ZhgSJcgNX-23" target="_w6nzbv7fu4ZhgSJcgNX-29">
          <mxGeometry relative="1" as="geometry">
            <Array as="points">
              <mxPoint x="603" y="220" />
              <mxPoint x="603" y="270" />
            </Array>
          </mxGeometry>
        </mxCell>
        <mxCell id="_w6nzbv7fu4ZhgSJcgNX-23" value="Programator" style="ellipse;whiteSpace=wrap;html=1;rounded=0;" vertex="1" parent="WIyWlLk6GJQsqaUBKTNV-1">
          <mxGeometry x="470" y="180" width="120" height="60" as="geometry" />
        </mxCell>
        <mxCell id="_w6nzbv7fu4ZhgSJcgNX-25" value="Programator competițional" style="ellipse;whiteSpace=wrap;html=1;rounded=0;" vertex="1" parent="WIyWlLk6GJQsqaUBKTNV-1">
          <mxGeometry x="645" y="170" width="130" height="60" as="geometry" />
        </mxCell>
        <mxCell id="_w6nzbv7fu4ZhgSJcgNX-29" value="Programator antrenamnete + cantonamente" style="ellipse;whiteSpace=wrap;html=1;rounded=0;" vertex="1" parent="WIyWlLk6GJQsqaUBKTNV-1">
          <mxGeometry x="640" y="240" width="140" height="60" as="geometry" />
        </mxCell>
        <mxCell id="_w6nzbv7fu4ZhgSJcgNX-48" style="edgeStyle=orthogonalEdgeStyle;rounded=0;orthogonalLoop=1;jettySize=auto;html=1;" edge="1" parent="WIyWlLk6GJQsqaUBKTNV-1" source="_w6nzbv7fu4ZhgSJcgNX-44" target="_w6nzbv7fu4ZhgSJcgNX-47">
          <mxGeometry relative="1" as="geometry" />
        </mxCell>
        <mxCell id="_w6nzbv7fu4ZhgSJcgNX-50" style="edgeStyle=orthogonalEdgeStyle;rounded=0;orthogonalLoop=1;jettySize=auto;html=1;" edge="1" parent="WIyWlLk6GJQsqaUBKTNV-1" source="_w6nzbv7fu4ZhgSJcgNX-44" target="_w6nzbv7fu4ZhgSJcgNX-49">
          <mxGeometry relative="1" as="geometry" />
        </mxCell>
        <mxCell id="_w6nzbv7fu4ZhgSJcgNX-44" value="Funcție atingere goal" style="ellipse;whiteSpace=wrap;html=1;rounded=0;" vertex="1" parent="WIyWlLk6GJQsqaUBKTNV-1">
          <mxGeometry x="400" y="340" width="130" height="60" as="geometry" />
        </mxCell>
        <mxCell id="_w6nzbv7fu4ZhgSJcgNX-47" value="Creștere rezistență/ forță/ slăbire pt concurs" style="ellipse;whiteSpace=wrap;html=1;rounded=0;" vertex="1" parent="WIyWlLk6GJQsqaUBKTNV-1">
          <mxGeometry x="640" y="310" width="140" height="60" as="geometry" />
        </mxCell>
        <mxCell id="_w6nzbv7fu4ZhgSJcgNX-49" value="&quot;push yourself to the limit&quot;" style="ellipse;whiteSpace=wrap;html=1;rounded=0;" vertex="1" parent="WIyWlLk6GJQsqaUBKTNV-1">
          <mxGeometry x="640" y="380" width="140" height="70" as="geometry" />
        </mxCell>
        <mxCell id="_w6nzbv7fu4ZhgSJcgNX-53" value="Reminder controale mediacle periodice" style="ellipse;whiteSpace=wrap;html=1;" vertex="1" parent="WIyWlLk6GJQsqaUBKTNV-1">
          <mxGeometry x="280" y="440" width="130" height="60" as="geometry" />
        </mxCell>
        <mxCell id="_w6nzbv7fu4ZhgSJcgNX-55" value="Database" style="shape=note;whiteSpace=wrap;html=1;backgroundOutline=1;darkOpacity=0.05;" vertex="1" parent="WIyWlLk6GJQsqaUBKTNV-1">
          <mxGeometry x="70" y="490" width="80" height="100" as="geometry" />
        </mxCell>
      </root>
    </mxGraphModel>
  </diagram>
</mxfile>
